<?xml version="1.0" encoding="UTF-8"?>
<svg id="Capa_1" data-name="Capa 1" xmlns="http://www.w3.org/2000/svg" viewBox="0 0 1981.93 556.89">
  <g>
    <path d="M1017.76,440.07c-21.68-.17-39.66-4.62-53.93-13.32-14.27-8.7-24.57-21.35-30.92-37.93l-18.97-.14-7.27,44.67-54.21-.43,9.16-56.34,26.21.21,57.17-351.56,50.59.41-26.61,163.64,1.81.02c10.93-17.09,25.1-30.11,42.54-39.04,17.43-8.93,36.84-13.32,58.23-13.14,25.59.2,46.66,6.53,63.17,18.98,16.53,12.45,27.91,30.04,34.17,52.78,6.25,22.74,6.85,49.64,1.8,80.72-5.06,31.08-14.47,57.92-28.24,80.49-13.78,22.59-31.15,39.95-52.13,52.1-20.97,12.16-45.16,18.12-72.57,17.89ZM1017.67,393.39c27.11.22,49.62-8.84,67.51-27.17,17.91-18.33,29.55-44,34.92-77.03,5.37-33.02,2.1-58.82-9.81-77.39-11.9-18.57-31.4-27.97-58.51-28.19-24.7-.19-45.74,7.25-63.12,22.35-17.39,15.09-28.13,35.27-32.23,60.52l-6.95,42.73c-4.1,25.25.06,45.55,12.5,60.87,12.43,15.34,30.99,23.11,55.69,23.3Z" style="fill: #fff;"/>
    <path d="M1327.66,442.56c-28.01-.22-51.47-6.65-70.37-19.28-18.92-12.63-32.24-30.32-40-53.08-7.76-22.75-9.14-49.5-4.13-80.26,5-30.76,15.06-57.42,30.2-79.98,15.12-22.57,34.16-40.01,57.13-52.3,22.95-12.29,48.44-18.33,76.45-18.11,28.91.23,52.68,6.59,71.31,19.05,18.63,12.47,31.75,30.08,39.36,52.82,7.61,22.76,8.89,49.67,3.83,80.75-5,30.77-15.01,57.49-30.01,80.23-15.01,22.74-33.9,40.17-56.68,52.3-22.78,12.15-48.48,18.1-77.09,17.86ZM1335.4,394.98c28.01.22,51.25-8.74,69.74-26.91,18.48-18.16,30.38-43.59,35.7-76.3,5.37-33.03,1.77-58.65-10.79-76.91-12.57-18.24-32.85-27.49-60.86-27.71-27.71-.22-50.88,8.75-69.51,26.91-18.64,18.17-30.62,43.6-35.93,76.3-5.32,32.71-1.64,58.26,11.06,76.66,12.68,18.42,32.88,27.74,60.59,27.97Z" style="fill: #fff;"/>
    <path d="M1709,556.48l26.61-163.65h-1.81c-10.87,16.76-24.96,29.69-42.28,38.79-17.31,9.11-36.81,13.57-58.49,13.39-25.6-.21-46.66-6.53-63.18-18.98-16.52-12.45-27.91-30.04-34.16-52.79-6.25-22.73-6.85-49.64-1.79-80.73,5.06-31.07,14.46-57.9,28.24-80.49,13.77-22.58,31.22-39.94,52.35-52.09,21.13-12.15,45.25-18.12,72.35-17.89,21.68.17,39.65,4.62,53.92,13.32,14.27,8.7,24.58,21.34,30.92,37.93l18.98.15,7.27-44.68,54.21.43-9.16,56.34-26.2-.21-57.17,351.56-50.6-.41ZM1652.82,398.49c24.69.2,45.73-7.24,63.11-22.35,17.38-15.08,28.13-35.27,32.23-60.52l6.95-42.73c4.1-25.25-.06-45.54-12.5-60.87-12.43-15.34-31-23.11-55.69-23.31-27.11-.21-49.62,8.85-67.52,27.17-17.91,18.34-29.55,44.01-34.92,77.03-5.37,33.03-2.1,58.83,9.81,77.39,11.91,18.58,31.41,27.97,58.52,28.19Z" style="fill: #fff;"/>
    <path d="M1866.18,441.05l47.38-291.36,50.6.41-47.38,291.36-50.6-.41ZM1945.34,110.08c-8.43-.07-15.14-3.36-20.1-9.89-4.98-6.52-6.72-14.31-5.24-23.38,1.47-9.06,5.74-16.8,12.82-23.24,7.07-6.42,14.83-9.6,23.26-9.53,8.43.07,15.13,3.36,20.1,9.88,4.97,6.54,6.72,14.33,5.25,23.39-1.48,9.07-5.76,16.81-12.83,23.23-7.08,6.43-14.83,9.61-23.26,9.54Z" style="fill: #fff;"/>
  </g>
  <path d="M750.52,48.11c-22.34,0-40.45,18.11-40.45,40.45,0,2.5.24,4.95.68,7.33-20.97,21.64-33.04,46.95-39.78,66.21-3.68-1.2-7.29-2.16-10.83-2.89-3.26-16.82-5.78-47.3,8.28-79.15,18.4-3.8,32.23-20.09,32.23-39.61,0-22.34-18.11-40.45-40.45-40.45s-40.45,18.11-40.45,40.45c0,10.57,4.06,20.18,10.69,27.39-14.83,35.98-13.96,69.78-10.51,92.09-6.14,1.55-11.79,3.67-16.86,6.13-30.5-56.4-90.17-94.7-158.8-94.7h0c-5.19,0-10.33.23-15.42.66h-221.88c-10.96,0-19.85,8.89-19.85,19.85s8.89,19.85,19.85,19.85h123.55c-40.68,33.08-66.68,83.52-66.68,140.06,0,37.85,11.69,72.98,31.64,102.01l-23.15,38.66h-67.33c-10.96,0-19.85,8.89-19.85,19.85s8.89,19.85,19.85,19.85h78.14c.25,0,.5.05.75.05h160.37c.25,0,.49,0,.74,0,21.83.26,53.1.55,85.44.55,55.08,0,113.26-.84,133.2-4.06,15.45-2.49,29.81-15.61,42.68-38.99,10.03-18.21,18.67-41.79,24.33-66.4,15.06-65.47,6.02-118.21-24.11-142.28,4.52-14.61,13.44-36.24,29.92-54.52,4.38,1.62,9.11,2.51,14.05,2.51,22.34,0,40.45-18.11,40.45-40.45s-18.11-40.45-40.45-40.45ZM436.64,111.66c.28-.02.56-.02.83-.04,2.26-.11,4.52-.17,6.81-.17,72.43,0,131.99,54.82,139.51,125.24.83,9.08.91,17.77.35,26.06-.02.31-.05.63-.07.94-.08,1.14-.2,2.26-.31,3.38-4.21,38.85-24.28,72.92-53.59,95.64-.28.19-.56.4-.84.59-36.25,24.18-81.9,28.23-101.46,28.79h-9.91c-.14,0-.29,0-.42,0h0s-98.23,0-98.23,0l17.54-29.18c4.28-7.2,3.65-16.39-1.62-22.92-19.58-24.12-31.27-54.76-31.27-88.23,0-74.96,58.72-136.15,132.69-140.11ZM696.94,285.05c-2.55,23.97-9.31,49.99-18.54,71.41-10.05,23.29-18.92,31.74-21.58,33.11-14.58,2.22-55.21,3.12-100.16,3.36,2.04-1.62,4.04-3.29,6.01-5,25.04-20.48,47.74-52.49,57.09-94.08,3.22-13.5,4.94-27.58,4.94-42.07,0-13.03-1.39-25.73-4.02-37.98-.65-3.59-1.37-7.2-2.21-10.87,2.67-1.46,5.92-2.94,9.68-4.06,16.28-4.86,33.94-.71,52.5,12.32,14.07,9.88,20.16,37.49,16.29,73.86Z" style="fill: #fff;"/>
  <path d="M245.15,195.68c0-10.96-8.89-19.85-19.85-19.85H30.18c-10.96,0-19.85,8.89-19.85,19.85s8.89,19.85,19.85,19.85h195.12c10.96,0,19.85-8.89,19.85-19.85Z" style="fill: #fff;"/>
  <path d="M208.78,294.92c0-10.96-8.89-19.85-19.85-19.85h-122.38c-10.96,0-19.85,8.89-19.85,19.85s8.89,19.85,19.85,19.85h122.38c10.96,0,19.85-8.89,19.85-19.85Z" style="fill: #fff;"/>
  <polygon points="216.76 432.14 160.17 432.14 169.76 375.55 226.35 375.55 216.76 432.14" style="fill: #fff;"/>
  <polygon points="56.59 215.53 0 215.53 9.59 158.94 66.18 158.94 56.59 215.53" style="fill: #fff;"/>
</svg>